<svg xmlns="http://www.w3.org/2000/svg" xmlns:xlink="http://www.w3.org/1999/xlink" viewBox="0 0 45 45">
  <g id="white-king" class="white king" fill="none" fill-rule="evenodd" stroke="#000" stroke-width="1.5" stroke-linecap="round" stroke-linejoin="round">
    <path d="M22.5 11.63V6" stroke="#000" />
    <path fill="#ffffff" stroke-linecap="butt" stroke-linejoin="miter" d="M22.5 25s4.5-7.5 3-10.5c0 0-1-3-2.5-3-1.5 0-2.5 3-2.5 3-1.5 3 3 10.5 3 10.5" />
    <path fill="#ffffff" d="M11.5 37c5.5 3.5 15.5 3.5 21 0v-7c0 0 9-4.5 6-10.5-4-6.5-13.5-3.5-16 4V27v-3.5c-3.5-7.5-13-10.5-17-4-3 6 6 10.5 6 10.5v7" />
    <path d="M20 8h5" stroke-linejoin="miter" />
    <path d="M32 29.5s8.5-4 6.03-9.65C34.15 14 25 18 22.5 23.5v.01V23.5c-2.5-5.5-11.65-9.65-15.53-3.85C4.5 25.5 13 29.5 13 29.5H32" stroke="#000" />
    <path d="M11.5 30c5.5-3 15.5-3 21 0m-21 3.5c5.5-3 15.5-3 21 0" stroke="#000" />
  </g>
</svg>